<?xml version="1.0" encoding="UTF-8"?>
<svg width="1670px" height="1080px" viewBox="0 0 1670 1080" version="1.1" xmlns="http://www.w3.org/2000/svg" xmlns:xlink="http://www.w3.org/1999/xlink">
    <!-- Generator: Sketch 50.2 (55047) - http://www.bohemiancoding.com/sketch -->
    <title>Artboard</title>
    <desc>Created with Sketch.</desc>
    <defs></defs>
    <g id="Artboard" stroke="none" stroke-width="1" fill="none" fill-rule="evenodd">
        <g id="sky" transform="translate(2.000000, 0.000000)" fill="#79C5E5" stroke="#979797">
            <rect id="day" x="0.5" y="0.5" width="1665" height="1079"></rect>
        </g>
        <g id="house" transform="translate(796.000000, 610.000000)">
            <rect id="Rectangle-2" fill="#4FB09A" x="4.45714286" y="37.9666667" width="30.0857143" height="29.0333333"></rect>
            <polygon id="Triangle-2" fill="#6F595E" points="19.5 18.9833333 39 37.9666667 0 37.9666667"></polygon>
            <path d="M40.1142857,13.4 C38.1487396,12.8145751 36.7489243,12.3283589 34.2330512,12.6210881 C33.9185671,11.4176383 31.0095685,11.4501712 29.0441034,12.1982607 C30.0661161,10.4094196 24.0122761,9.46619968 20.946157,10.4419525 C17.1723473,11.6128358 19.5511251,12.8709543 21.4178427,13.0439154 C20.4783629,13.0439154 19.707597,13.2296549 19.7253521,13.4 C26.8007183,13.4 40.1142857,13.4 40.1142857,13.4 L21.4178427,11.725" id="topCloud" fill="#FFFFFE" transform="translate(29.528571, 11.725000) rotate(-91.000000) translate(-29.528571, -11.725000) "></path>
            <path d="M42.3428571,12.2833333 C40.377311,11.8930501 38.9774958,11.5689059 36.4616226,11.7640587 C36.1471385,10.9617589 33.2381399,10.9834475 31.2726748,11.4821738 C32.2946875,10.2896131 26.2408475,9.66079979 23.1747284,10.3113017 C19.4009187,11.0918906 21.7796966,11.9306362 23.6464141,12.0459436 C22.7069343,12.0459436 21.9361684,12.16977 21.9539235,12.2833333 C29.0292898,12.2833333 42.3428571,12.2833333 42.3428571,12.2833333 L23.6464141,11.1666667" id="topCloud" fill="#FFFFFE" transform="translate(31.757143, 11.166667) scale(-1, 1) rotate(-91.000000) translate(-31.757143, -11.166667) "></path>
            <rect id="Rectangle-3" fill="#E0EBE8" x="7.8" y="41.3166667" width="7.8" height="7.81666667"></rect>
            <rect id="Rectangle-3" fill="#E0EBE8" x="22.2857143" y="41.3166667" width="7.8" height="7.81666667"></rect>
            <rect id="Rectangle-3" fill="#E0EBE8" x="7.8" y="51.3666667" width="7.8" height="7.81666667"></rect>
            <rect id="Rectangle-3" fill="#6F595E" x="23.4" y="55.8333333" width="5.57142857" height="11.1666667"></rect>
            <rect id="Rectangle-3" fill="#6F595E" x="26.7428571" y="18.9833333" width="7.8" height="15.6333333"></rect>
        </g>
        <g id="hill" transform="translate(206.000000, 662.000000)">
            <path d="M409.769941,418 C368.413362,373.607511 343.062992,313.756509 343.062992,247.909574 C343.062992,110.992897 452.666858,0 587.870079,0 C723.073299,0 832.677165,110.992897 832.677165,247.909574 C832.677165,313.756509 807.326796,373.607511 765.970216,418 L409.769941,418 Z" id="Combined-Shape" fill="#429B87"></path>
            <path d="M564.413788,418 C583.360695,279.230407 702.210959,172.31383 846,172.31383 C989.789041,172.31383 1108.6393,279.230407 1127.58621,418 L564.413788,418 Z" id="Combined-Shape" fill="#338875"></path>
            <path d="M0.655251395,416.888298 C45.3174514,238.435695 201.074937,106.723404 386.362205,106.723404 C571.649472,106.723404 727.406958,238.435695 772.069158,416.888298 L0.655251395,416.888298 Z" id="Combined-Shape" fill="#4FB09A"></path>
        </g>
        <g id="tree" transform="translate(366.000000, 788.000000)">
            <ellipse id="Oval-3" fill="#479E8A" cx="31.5" cy="134.706522" rx="31.5" ry="18.2934783"></ellipse>
            <path d="M61.8947368,99.371513 C61.8947368,116.516648 48.5327582,124.173913 32.0579255,124.173913 C15.572505,124.173913 2.21052632,116.516648 2.21052632,99.371513 C2.21052632,82.227479 15.572505,0 32.0579255,0 C48.5327582,0 61.8947368,82.227479 61.8947368,99.371513" id="Fill-77" fill="#82A93F"></path>
            <path d="M56.3684211,86.0450753 C56.3684211,76.0213483 51.9139653,43.7760812 44.9940201,18.6847917 C40.9332139,7.61040341 36.3130109,0 31.4131096,0 C15.283836,0 2.21052632,82.3043686 2.21052632,99.4644336 C2.21052632,99.8084067 2.22088552,100.146867 2.23124471,100.482021 C7.35904844,107.578669 16.6098136,110.869565 27.176197,110.869565 C43.2951113,110.869565 56.3684211,103.20514 56.3684211,86.0450753" id="Fill-78" fill="#A1C83C"></path>
            <polygon id="Fill-79" fill="#624C27" points="27.6315789 134.152174 35.3684211 134.152174 35.3684211 120.847826 27.6315789 120.847826"></polygon>
        </g>
        <g id="tree" transform="translate(451.000000, 741.000000)">
            <ellipse id="Oval-3" fill="#479E8A" cx="33" cy="134.706522" rx="33" ry="18.2934783"></ellipse>
            <path d="M33.5851422,124.389493 C16.2709851,124.389493 2.23728814,116.718934 2.23728814,99.544033 C2.23728814,82.3702351 16.2709851,0 33.5851422,0 C50.888179,0 64.921876,82.3702351 64.921876,99.544033 C64.921876,116.718934 50.888179,124.389493 33.5851422,124.389493 Z" id="Fill-77" fill="#C4B93A"></path>
            <path d="M59.3250378,86.1944592 C59.3250378,76.1533298 54.6296032,43.8520813 47.3353,18.7172306 C43.0548108,7.62361592 38.1846623,0 33.0196842,0 C16.0178429,0 2.23728814,82.4472581 2.23728814,99.6371149 C2.23728814,99.9816852 2.24820775,100.320733 2.25912737,100.656468 C7.66433703,107.765438 17.4155536,111.062047 28.5535614,111.062047 C45.5444831,111.062047 59.3250378,103.384316 59.3250378,86.1944592" id="Fill-78" fill="#C8A73C"></path>
            <polygon id="Fill-79" fill="#624C27" points="29.0847458 134.175272 36.9203192 134.175272 36.9203192 120.847826 29.0847458 120.847826"></polygon>
        </g>
        <g id="tree" transform="translate(537.000000, 788.000000)">
            <ellipse id="Oval-3" fill="#479E8A" cx="33" cy="134.706522" rx="33" ry="18.2934783"></ellipse>
            <path d="M64.921876,99.544033 C64.921876,116.718934 50.888179,124.389493 33.5851422,124.389493 C16.2709851,124.389493 2.23728814,116.718934 2.23728814,99.544033 C2.23728814,82.3702351 16.2709851,0 33.5851422,0 C50.888179,0 64.921876,82.3702351 64.921876,99.544033" id="Fill-77" fill="#82A93F"></path>
            <path d="M59.3250378,86.1944592 C59.3250378,76.1533298 54.6296032,43.8520813 47.3353,18.7172306 C43.0548108,7.62361592 38.1846623,0 33.0196842,0 C16.0178429,0 2.23728814,82.4472581 2.23728814,99.6371149 C2.23728814,99.9816852 2.24820775,100.320733 2.25912737,100.656468 C7.66433703,107.765438 17.4155536,111.062047 28.5535614,111.062047 C45.5444831,111.062047 59.3250378,103.384316 59.3250378,86.1944592" id="Fill-78" fill="#A1C83C"></path>
            <polygon id="Fill-79" fill="#624C27" points="29.0847458 134.175272 36.9203192 134.175272 36.9203192 120.847826 29.0847458 120.847826"></polygon>
        </g>
        <g id="tree" transform="translate(1074.000000, 818.000000)">
            <ellipse id="Oval-3" fill="#3E927F" cx="21" cy="95.0869565" rx="21" ry="12.9130435"></ellipse>
            <path d="M41.2631579,70.1445974 C41.2631579,82.2470459 32.3551721,87.6521739 21.3719504,87.6521739 C10.38167,87.6521739 1.47368421,82.2470459 1.47368421,70.1445974 C1.47368421,58.0429264 10.38167,0 21.3719504,0 C32.3551721,0 41.2631579,58.0429264 41.2631579,70.1445974" id="Fill-77" fill="#82A93F"></path>
            <path d="M37.5789474,60.7377002 C37.5789474,53.6621282 34.6093102,30.9007632 29.9960134,13.1892647 C27.2888092,5.37204947 24.2086739,0 20.942073,0 C10.189224,0 1.47368421,58.0972013 1.47368421,70.2101885 C1.47368421,70.4529929 1.48059034,70.6919063 1.48749648,70.9284851 C4.9060323,75.9378842 11.073209,78.2608696 18.1174647,78.2608696 C28.8634076,78.2608696 37.5789474,72.8506873 37.5789474,60.7377002" id="Fill-78" fill="#A1C83C"></path>
            <polygon id="Fill-79" fill="#624C27" points="18.4210526 94.6956522 23.5789474 94.6956522 23.5789474 85.3043478 18.4210526 85.3043478"></polygon>
        </g>
        <g id="tree" transform="translate(1130.000000, 895.000000)">
            <ellipse id="Oval-3" fill="#3E927F" cx="21.5" cy="95.0869565" rx="21.5" ry="12.9130435"></ellipse>
            <path d="M21.881229,87.8043478 C10.6007933,87.8043478 1.45762712,82.3898359 1.45762712,70.2663762 C1.45762712,58.1436953 10.6007933,0 21.881229,0 C33.1544197,0 42.2975859,58.1436953 42.2975859,70.2663762 C42.2975859,82.3898359 33.1544197,87.8043478 21.881229,87.8043478 Z" id="Fill-77" fill="#C4B93A"></path>
            <path d="M38.651161,60.8431476 C38.651161,53.7552916 35.5920142,30.9544103 30.8396652,13.2121627 C28.0508616,5.38137594 24.877886,0 21.5128245,0 C10.4358673,0 1.45762712,58.1980645 1.45762712,70.3320811 C1.45762712,70.5753072 1.46474141,70.8146353 1.47185571,71.0516248 C4.9934317,76.0697209 11.3464971,78.3967391 18.6030779,78.3967391 C29.6729208,78.3967391 38.651161,72.9771642 38.651161,60.8431476" id="Fill-78" fill="#C8A73C"></path>
            <polygon id="Fill-79" fill="#624C27" points="18.9491525 94.7119565 24.0541474 94.7119565 24.0541474 85.3043478 18.9491525 85.3043478"></polygon>
        </g>
        <g id="tree" transform="translate(1188.000000, 841.000000)">
            <ellipse id="Oval-3" fill="#3E927F" cx="21.5" cy="95.0869565" rx="21.5" ry="12.9130435"></ellipse>
            <path d="M42.2975859,70.2663762 C42.2975859,82.3898359 33.1544197,87.8043478 21.881229,87.8043478 C10.6007933,87.8043478 1.45762712,82.3898359 1.45762712,70.2663762 C1.45762712,58.1436953 10.6007933,0 21.881229,0 C33.1544197,0 42.2975859,58.1436953 42.2975859,70.2663762" id="Fill-77" fill="#82A93F"></path>
            <path d="M38.651161,60.8431476 C38.651161,53.7552916 35.5920142,30.9544103 30.8396652,13.2121627 C28.0508616,5.38137594 24.877886,0 21.5128245,0 C10.4358673,0 1.45762712,58.1980645 1.45762712,70.3320811 C1.45762712,70.5753072 1.46474141,70.8146353 1.47185571,71.0516248 C4.9934317,76.0697209 11.3464971,78.3967391 18.6030779,78.3967391 C29.6729208,78.3967391 38.651161,72.9771642 38.651161,60.8431476" id="Fill-78" fill="#A1C83C"></path>
            <polygon id="Fill-79" fill="#624C27" points="18.9491525 94.7119565 24.0541474 94.7119565 24.0541474 85.3043478 18.9491525 85.3043478"></polygon>
        </g>
        <g id="branch" transform="translate(895.000000, 722.000000)">
            <ellipse id="Oval-3" fill="#3E927F" cx="19" cy="77.4177215" rx="19" ry="10.5822785"></ellipse>
            <polygon id="Triangle" fill="#277C68" points="17.3235294 0 30.1764706 59.0379747 4.47058824 59.0379747"></polygon>
            <rect id="Rectangle" fill="#624C27" x="15.6470588" y="33.4177215" width="3.35294118" height="43.443038" rx="1.67647059"></rect>
            <rect id="Rectangle" fill="#624C27" transform="translate(20.676471, 55.139241) rotate(51.000000) translate(-20.676471, -55.139241) " x="19" y="50.1265823" width="3.35294118" height="10.0253165" rx="1.67647059"></rect>
            <rect id="Rectangle" fill="#624C27" transform="translate(13.970588, 48.455696) rotate(-49.000000) translate(-13.970588, -48.455696) " x="12.2941176" y="44.556962" width="3.35294118" height="7.79746835" rx="1.67647059"></rect>
            <rect id="Rectangle" fill="#624C27" transform="translate(19.558824, 45.113924) rotate(51.000000) translate(-19.558824, -45.113924) " x="17.8823529" y="40.1012658" width="3.35294118" height="10.0253165" rx="1.67647059"></rect>
        </g>
        <g id="branch" transform="translate(673.000000, 657.000000)">
            <ellipse id="Oval-3" fill="#3E927F" cx="16.5" cy="77.5192308" rx="16.5" ry="9.48076923"></ellipse>
            <polygon id="Triangle" fill="#277C68" points="15.95 0 28.6 59.1153846 3.3 59.1153846"></polygon>
            <rect id="Rectangle" fill="#624C27" x="14.1565217" y="33.4615385" width="3.58695652" height="43.5" rx="1.79347826"></rect>
            <rect id="Rectangle" fill="#624C27" transform="translate(18.962084, 55.181189) rotate(51.000000) translate(-18.962084, -55.181189) " x="17.5273014" y="49.9311895" width="2.86956522" height="10.5" rx="1.43478261"></rect>
            <rect id="Rectangle" fill="#624C27" transform="translate(12.004348, 48.836538) rotate(-49.000000) translate(-12.004348, -48.836538) " x="10.5695652" y="44.7115385" width="2.86956522" height="8.25" rx="1.43478261"></rect>
            <rect id="Rectangle" fill="#624C27" transform="translate(18.244693, 45.431189) rotate(51.000000) translate(-18.244693, -45.431189) " x="16.8099101" y="40.1811895" width="2.86956522" height="10.5" rx="1.43478261"></rect>
        </g>
        <g id="house" transform="translate(749.000000, 855.000000)">
            <rect id="Rectangle-2" fill="#FFA3A3" x="10.0384615" y="83.4586466" width="66.9230769" height="64.5413534"></rect>
            <polygon id="Triangle-2" fill="#6F595E" points="43.5 42.2857143 87 83.4586466 0 83.4586466"></polygon>
            <path d="M91.4615385,28.9323308 C87.0088102,27.5710915 83.8376831,26.4405337 78.1382498,27.1211924 C77.4258206,24.3229117 70.8358049,24.3985577 66.3832603,26.1380274 C68.6985174,21.9785854 54.9842099,19.7853953 48.0382551,22.0542315 C39.4891051,24.7767881 44.8779641,27.7021854 49.106807,28.1043573 C46.978519,28.1043573 45.2324339,28.5362418 45.2726561,28.9323308 C61.3011186,28.9323308 91.4615385,28.9323308 91.4615385,28.9323308 L49.106807,25.037594" id="topCloud" fill="#FFFFFE" transform="translate(67.480769, 25.037594) rotate(-91.000000) translate(-67.480769, -25.037594) "></path>
            <path d="M95.9230769,27.8195489 C91.4703487,26.8472351 88.2992216,26.0396938 82.5997882,26.5258785 C81.8873591,24.5271066 75.2973433,24.5811395 70.8447988,25.8236179 C73.1600558,22.8525879 59.4457484,21.2860235 52.4997936,22.9066208 C43.9506435,24.8513041 49.3395026,26.9408735 53.5683455,27.2281392 C51.4400575,27.2281392 49.6939724,27.5366281 49.7341946,27.8195489 C65.7626571,27.8195489 95.9230769,27.8195489 95.9230769,27.8195489 L53.5683455,25.037594" id="topCloud" fill="#FFFFFE" transform="translate(71.942308, 25.037594) scale(-1, 1) rotate(-91.000000) translate(-71.942308, -25.037594) "></path>
            <rect id="Rectangle-3" fill="#E0EBE8" x="17.8461538" y="91.2481203" width="16.7307692" height="16.6917293"></rect>
            <rect id="Rectangle-3" fill="#E0EBE8" x="49.0769231" y="91.2481203" width="16.7307692" height="16.6917293"></rect>
            <rect id="Rectangle-3" fill="#E0EBE8" x="17.8461538" y="114.616541" width="16.7307692" height="16.6917293"></rect>
            <rect id="Rectangle-3" fill="#6F595E" x="51.3076923" y="123.518797" width="12.2692308" height="24.481203"></rect>
            <rect id="Rectangle-3" fill="#6F595E" x="59.1153846" y="42.2857143" width="17.8461538" height="33.3834586"></rect>
        </g>
        <g id="clouds" transform="translate(167.000000, 49.000000)" fill="#FFFFFE">
            <path d="M1315,308.58 C1301.69862,295.389591 1292.22569,284.434486 1275.20009,291.030068 C1273.07189,263.914728 1253.38591,264.647739 1240.08507,281.5032 C1247.00131,241.198207 1206.03333,219.946195 1185.28407,241.931217 C1159.74568,268.312791 1175.84351,296.65989 1188.47609,300.556937 C1182.11838,300.556937 1176.9024,304.741897 1177.02255,308.58 C1224.90348,308.58 1315,308.58 1315,308.58 L1188.47609,270.84" id="topCloud"></path>
            <path d="M144.144808,36.2759153 L132.363145,36.2599965 C132.242316,36.2592385 132.122033,36.2539322 132.002844,36.2448358 L126.173521,36.2364973 C122.577624,36.2319491 119.665149,32.1855415 119.668976,27.1999246 L119.668976,27.1415557 C119.672256,22.1559388 122.590745,18.1178696 126.186643,18.1231759 L131.983162,18.1307563 C132.111099,18.1209018 132.239582,18.1140795 132.369706,18.1140795 L158.974536,18.1140795 C162.570434,18.1140795 165.485642,14.071462 165.485642,9.08584518 L165.485642,9.02823428 C165.485642,4.04185938 162.570434,0 158.974536,0 L6.51165263,0 C2.91520838,0 0,4.04185938 0,9.02823428 L0,9.08584518 C0,14.071462 2.91520838,18.1140795 6.51165263,18.1140795 L68.0607118,18.1140795 C68.484434,18.1140795 68.8977681,18.1716904 69.299074,18.2785737 L73.184196,18.284638 C76.7800935,18.2891863 79.6925682,22.3355939 79.688741,27.3212107 L79.688741,27.3788216 C79.6854606,32.3651965 76.7669718,36.4032657 73.1710743,36.3979595 L39.3684349,36.3509611 C36.4597873,37.2507524 34.2837691,40.8461273 34.2804887,45.1510259 L34.2804887,45.2086368 C34.2766615,50.1942537 37.1891362,54.2406613 40.7855804,54.2459675 L144.131686,54.3899948 C147.727583,54.395301 150.646072,50.3572319 150.649353,45.370857 L150.649899,45.3132461 C150.65318,40.3276292 147.740705,36.2812216 144.144808,36.2759153" id="cloud2"></path>
            <path d="M503.120777,442.331482 C503.120777,430.777631 496.325568,421.410357 487.943533,421.410357 C487.665982,421.410357 487.390984,421.421791 487.116623,421.442021 C483.724761,410.46164 475.825729,402.762005 466.621251,402.762005 C466.173341,402.762005 465.728622,402.785753 465.287093,402.821815 C461.171684,383.018605 447.948781,368.52 432.261099,368.52 C415.998535,368.52 402.383871,384.09958 398.819735,405.018067 C390.588918,408.569715 384.481524,418.724192 383.749046,430.979929 C381.99569,430.274525 380.143437,429.888399 378.224827,429.888399 C370.778809,429.888399 364.300071,435.591442 360.958615,444 L503.068457,444 C503.099721,443.449398 503.120777,442.894398 503.120777,442.331482 Z" id="cloud3"></path>
        </g>
        <g id="car" transform="translate(1126.000000, 1020.000000)">
            <path d="M99.3303571,20.8322724 C99.3303571,20.8322724 85.1346058,0 79.9775688,0 C74.8205319,0 33.4547487,0 29.574782,0 C25.6931045,0 22.3058319,1.33976266 13.3928571,21.1923077 L99.3303571,20.8322724" id="Fill-114" fill="#76B4E2"></path>
            <path d="M11.1607143,37.9230769 L0,37.9230769 L3.51343433,43.5 L10.92158,43.5 C10.92158,43.5 9.309514,41.0044358 11.1607143,37.9230769" id="Fill-115" fill="#3F4340"></path>
            <path d="M7.8125,40.1271114 C7.8125,44.4531157 11.2216064,47.9615385 15.4270501,47.9615385 L117.384599,47.9615385 C121.590043,47.9615385 125,44.4531157 125,40.1271114 L125,29.0267348 C125,24.6998551 121.590043,21.1923077 117.384599,21.1923077 L15.4270501,21.1923077 C11.2216064,21.1923077 7.8125,24.6998551 7.8125,29.0267348 L7.8125,40.1271114" id="Fill-116" fill="#76B4E2"></path>
            <path d="M91.5178571,20.8699743 C91.5178571,20.8699743 78.4459373,2.23076923 74.8850393,2.23076923 C71.3215923,2.23076923 34.85956,2.23076923 31.4431031,2.23076923 C28.0266462,2.23076923 24.6433257,3.42995152 17.8571429,21.1923077 L91.5178571,20.8699743" id="Fill-117" fill="#D2EDF3"></path>
            <polygon id="Fill-118" fill="#76B4E2" points="53.5714286 21.1923077 56.9196429 21.1923077 56.9196429 1.11538462 53.5714286 1.11538462"></polygon>
            <path d="M117.640239,21.1923077 L116.998902,21.1923077 C116.41512,22.2047337 116.071429,23.4023046 116.071429,24.69019 C116.071429,28.3027717 118.737091,31.2307692 122.024358,31.2307692 C123.109698,31.2307692 124.124327,30.90654 125,30.3492993 L125,29.2754594 C125,24.8112115 121.704511,21.1923077 117.640239,21.1923077" id="Fill-119" fill="#ECD631"></path>
            <path d="M8.56517802,26.7692308 C8.42976472,26.7692308 8.29985043,26.7949295 8.16993614,26.8206283 C7.94310167,27.6491912 7.8125,28.536241 7.8125,29.4649405 L7.8125,33.3011428 C8.05170726,33.3950762 8.30191256,33.4615385 8.56517802,33.4615385 C9.99835946,33.4615385 11.1607143,31.9630358 11.1607143,30.1153846 C11.1607143,28.2677335 9.99835946,26.7692308 8.56517802,26.7692308" id="Fill-120" fill="#ED3224"></path>
            <path d="M40.1785714,47.9623994 C40.1785714,53.5059375 35.6817416,58 30.1339286,58 C24.586977,58 20.0892857,53.5059375 20.0892857,47.9623994 C20.0892857,42.4171395 24.586977,37.9230769 30.1339286,37.9230769 C35.6817416,37.9230769 40.1785714,42.4171395 40.1785714,47.9623994" id="Fill-121" fill="#3F4340"></path>
            <path d="M36.8303571,46.846569 C36.8303571,49.9262694 34.3320122,52.4230769 31.2495846,52.4230769 C28.1679878,52.4230769 25.6696429,49.9262694 25.6696429,46.846569 C25.6696429,43.7660383 28.1679878,41.2692308 31.2495846,41.2692308 C34.3320122,41.2692308 36.8303571,43.7660383 36.8303571,46.846569" id="Fill-122" fill="#ADADAD"></path>
            <path d="M106.026786,47.9623994 C106.026786,53.5059375 101.530817,58 95.9821429,58 C90.4351913,58 85.9375,53.5059375 85.9375,47.9623994 C85.9375,42.4171395 90.4351913,37.9230769 95.9821429,37.9230769 C101.530817,37.9230769 106.026786,42.4171395 106.026786,47.9623994" id="Fill-123" fill="#3F4340"></path>
            <path d="M100.446429,46.846569 C100.446429,49.9262694 97.9487285,52.4230769 94.8652405,52.4230769 C91.7834143,52.4230769 89.2857143,49.9262694 89.2857143,46.846569 C89.2857143,43.7660383 91.7834143,41.2692308 94.8652405,41.2692308 C97.9487285,41.2692308 100.446429,43.7660383 100.446429,46.846569" id="Fill-124" fill="#ADADAD"></path>
        </g>
    </g>
</svg>